<mxfile host="65bd71144e">
    <diagram id="_6_fxTTIoe9WjkEIhUAf" name="Page-1">
        <mxGraphModel dx="1086" dy="768" grid="1" gridSize="10" guides="1" tooltips="1" connect="1" arrows="1" fold="1" page="1" pageScale="1" pageWidth="827" pageHeight="1169" background="none" math="0" shadow="0">
            <root>
                <mxCell id="0"/>
                <mxCell id="1" parent="0"/>
                <mxCell id="33" value="" style="group" vertex="1" connectable="0" parent="1">
                    <mxGeometry x="119" y="100" width="590" height="560" as="geometry"/>
                </mxCell>
                <mxCell id="19" value="" style="group" vertex="1" connectable="0" parent="33">
                    <mxGeometry y="300" width="331" height="260" as="geometry"/>
                </mxCell>
                <mxCell id="7" value="Emotional Exhaustion" style="ellipse;whiteSpace=wrap;html=1;aspect=fixed;" vertex="1" parent="19">
                    <mxGeometry y="180" width="80" height="80" as="geometry"/>
                </mxCell>
                <mxCell id="60" value="" style="group" vertex="1" connectable="0" parent="19">
                    <mxGeometry width="331" height="170" as="geometry"/>
                </mxCell>
                <mxCell id="5" value="Physical Fatigue" style="ellipse;whiteSpace=wrap;html=1;aspect=fixed;" vertex="1" parent="60">
                    <mxGeometry width="80" height="80" as="geometry"/>
                </mxCell>
                <mxCell id="6" value="Cognitive Weariness" style="ellipse;whiteSpace=wrap;html=1;aspect=fixed;" vertex="1" parent="60">
                    <mxGeometry y="90" width="80" height="80" as="geometry"/>
                </mxCell>
                <mxCell id="32" value="" style="group" vertex="1" connectable="0" parent="60">
                    <mxGeometry x="160" y="90" width="120" height="80" as="geometry"/>
                </mxCell>
                <mxCell id="9" value="Burnout" style="ellipse;whiteSpace=wrap;html=1;" vertex="1" parent="32">
                    <mxGeometry width="120" height="80" as="geometry"/>
                </mxCell>
                <mxCell id="16" value="" style="endArrow=classic;html=1;entryX=1;entryY=0.5;entryDx=0;entryDy=0;" edge="1" parent="32" target="5">
                    <mxGeometry width="50" height="50" relative="1" as="geometry">
                        <mxPoint y="40" as="sourcePoint"/>
                        <mxPoint x="96.80934227475973" y="102.2345771766312" as="targetPoint"/>
                    </mxGeometry>
                </mxCell>
                <mxCell id="17" value="" style="endArrow=classic;html=1;entryX=1;entryY=0.5;entryDx=0;entryDy=0;exitX=0;exitY=0.5;exitDx=0;exitDy=0;" edge="1" parent="60" source="9" target="6">
                    <mxGeometry width="50" height="50" relative="1" as="geometry">
                        <mxPoint x="170" y="200" as="sourcePoint"/>
                        <mxPoint x="90" y="110" as="targetPoint"/>
                    </mxGeometry>
                </mxCell>
                <mxCell id="18" value="" style="endArrow=classic;html=1;entryX=1;entryY=0.5;entryDx=0;entryDy=0;exitX=0;exitY=0.5;exitDx=0;exitDy=0;" edge="1" parent="60" source="9" target="7">
                    <mxGeometry width="50" height="50" relative="1" as="geometry">
                        <mxPoint x="180" y="290" as="sourcePoint"/>
                        <mxPoint x="100" y="200" as="targetPoint"/>
                    </mxGeometry>
                </mxCell>
                <mxCell id="59" value="" style="endArrow=classic;html=1;exitX=0.5;exitY=1;exitDx=0;exitDy=0;" edge="1" parent="60" source="34">
                    <mxGeometry width="50" height="50" relative="1" as="geometry">
                        <mxPoint x="271" y="40" as="sourcePoint"/>
                        <mxPoint x="331" y="90" as="targetPoint"/>
                    </mxGeometry>
                </mxCell>
                <mxCell id="20" value="" style="group" vertex="1" connectable="0" parent="33">
                    <mxGeometry width="280" height="260" as="geometry"/>
                </mxCell>
                <mxCell id="2" value="Competency Thwarting" style="ellipse;whiteSpace=wrap;html=1;aspect=fixed;" vertex="1" parent="20">
                    <mxGeometry width="80" height="80" as="geometry"/>
                </mxCell>
                <mxCell id="3" value="Autonomy Thwarting" style="ellipse;whiteSpace=wrap;html=1;aspect=fixed;" vertex="1" parent="20">
                    <mxGeometry y="90" width="80" height="80" as="geometry"/>
                </mxCell>
                <mxCell id="4" value="Relatedness Thwarting" style="ellipse;whiteSpace=wrap;html=1;aspect=fixed;" vertex="1" parent="20">
                    <mxGeometry y="180" width="80" height="80" as="geometry"/>
                </mxCell>
                <mxCell id="8" value="Psychological Need Thwarting" style="ellipse;whiteSpace=wrap;html=1;" vertex="1" parent="20">
                    <mxGeometry x="160" y="90" width="120" height="80" as="geometry"/>
                </mxCell>
                <mxCell id="13" value="" style="endArrow=classic;html=1;entryX=1;entryY=0.5;entryDx=0;entryDy=0;" edge="1" parent="20" target="3">
                    <mxGeometry width="50" height="50" relative="1" as="geometry">
                        <mxPoint x="160" y="130" as="sourcePoint"/>
                        <mxPoint x="210" y="80" as="targetPoint"/>
                    </mxGeometry>
                </mxCell>
                <mxCell id="14" value="" style="endArrow=classic;html=1;entryX=1;entryY=0.5;entryDx=0;entryDy=0;" edge="1" parent="20" target="4">
                    <mxGeometry width="50" height="50" relative="1" as="geometry">
                        <mxPoint x="160" y="130" as="sourcePoint"/>
                        <mxPoint x="256.80934227475973" y="192.2345771766312" as="targetPoint"/>
                    </mxGeometry>
                </mxCell>
                <mxCell id="15" value="" style="endArrow=classic;html=1;entryX=1;entryY=0.5;entryDx=0;entryDy=0;" edge="1" parent="20" target="2">
                    <mxGeometry width="50" height="50" relative="1" as="geometry">
                        <mxPoint x="160" y="130" as="sourcePoint"/>
                        <mxPoint x="256.80934227475973" y="192.2345771766312" as="targetPoint"/>
                    </mxGeometry>
                </mxCell>
                <mxCell id="29" value="Turnover Intention" style="ellipse;whiteSpace=wrap;html=1;" vertex="1" parent="33">
                    <mxGeometry x="470" y="230" width="120" height="80" as="geometry"/>
                </mxCell>
                <mxCell id="30" value="" style="endArrow=classic;html=1;" edge="1" parent="33" target="29">
                    <mxGeometry width="50" height="50" relative="1" as="geometry">
                        <mxPoint x="280" y="130" as="sourcePoint"/>
                        <mxPoint x="330" y="80" as="targetPoint"/>
                    </mxGeometry>
                </mxCell>
                <mxCell id="31" value="" style="endArrow=classic;html=1;" edge="1" parent="33" target="29">
                    <mxGeometry width="50" height="50" relative="1" as="geometry">
                        <mxPoint x="280" y="427" as="sourcePoint"/>
                        <mxPoint x="484.0577081126237" y="541.2723165430693" as="targetPoint"/>
                    </mxGeometry>
                </mxCell>
                <mxCell id="34" value="Work Meetings" style="ellipse;whiteSpace=wrap;html=1;" vertex="1" parent="33">
                    <mxGeometry x="271" y="230" width="120" height="80" as="geometry"/>
                </mxCell>
                <mxCell id="35" value="" style="endArrow=classic;html=1;" edge="1" parent="33">
                    <mxGeometry width="50" height="50" relative="1" as="geometry">
                        <mxPoint x="331" y="230" as="sourcePoint"/>
                        <mxPoint x="331" y="160" as="targetPoint"/>
                    </mxGeometry>
                </mxCell>
            </root>
        </mxGraphModel>
    </diagram>
</mxfile>